<?xml version="1.0" standalone="no"?>
<!DOCTYPE svg PUBLIC "-//W3C//DTD SVG 20010904//EN"
 "http://www.w3.org/TR/2001/REC-SVG-20010904/DTD/svg10.dtd">
<svg version="1.0" xmlns="http://www.w3.org/2000/svg"
 width="500.000000pt" height="500.000000pt" viewBox="0 0 500.000000 500.000000"
 preserveAspectRatio="xMidYMid meet">
<metadata>
Created by potrace 1.16, written by Peter Selinger 2001-2019
</metadata>
<g transform="translate(0.000000,500.000000) scale(0.100000,-0.100000)"
fill="#000000" stroke="none">
<path d="M2480 3668 c-10 -21 -10 -22 4 -5 13 17 18 13 63 -65 302 -521 630
-1094 627 -1096 -1 -2 -32 13 -68 34 l-65 38 -268 468 c-253 441 -269 467
-293 463 -14 -3 -42 -6 -62 -7 -21 -1 -38 -3 -38 -5 0 -1 14 -25 30 -54 68
-114 81 -148 69 -172 -9 -18 -9 -20 2 -9 26 24 -6 72 291 -448 100 -173 187
-320 195 -327 10 -7 48 -10 121 -6 59 2 108 6 109 7 4 4 -692 1206 -699 1206
-4 0 -12 -10 -18 -22z"/>
<path d="M2631 2018 c-57 -169 -57 -185 -4 -174 25 6 31 15 53 83 14 42 30 78
35 80 6 2 22 -32 36 -74 21 -65 30 -80 52 -87 51 -18 55 4 19 107 -18 50 -43
121 -55 156 -20 58 -25 64 -53 66 l-30 2 -53 -159z"/>
<path d="M2172 2152 c-9 -6 -12 -47 -10 -168 l3 -159 65 -3 c123 -5 190 55
190 169 0 65 -25 111 -76 141 -35 20 -152 34 -172 20z m137 -81 c11 -6 26 -29
32 -51 18 -58 -4 -110 -54 -129 -21 -7 -40 -11 -44 -7 -10 10 -16 112 -9 161
7 41 10 45 31 41 13 -2 32 -9 44 -15z"/>
<path d="M1738 2103 c-9 -27 -34 -99 -56 -160 -26 -72 -36 -113 -29 -113 7 0
22 -3 35 -6 18 -5 25 0 37 30 15 34 17 36 64 36 45 0 50 -2 59 -29 8 -22 18
-30 47 -35 20 -4 39 -5 42 -2 3 3 -21 77 -52 166 l-58 160 -37 0 c-34 0 -37
-2 -52 -47z"/>
<path d="M3020 1992 c0 -170 0 -172 51 -172 16 0 19 8 20 48 0 26 3 65 7 87
l7 40 28 -48 c15 -26 30 -47 33 -47 2 0 19 24 37 53 l32 52 3 -85 c2 -47 7
-89 11 -93 4 -4 20 -5 35 -1 l26 6 0 159 0 159 -38 0 c-35 0 -41 -4 -56 -37
-9 -21 -25 -49 -35 -61 l-18 -24 -34 59 c-31 52 -38 58 -72 61 l-37 3 0 -159z"/>
</g>
</svg>
